<svg width="597" height="536" viewBox="0 0 597 536" fill="none" xmlns="http://www.w3.org/2000/svg">
<rect opacity="0.8" width="114.054" height="114.054" rx="10" transform="matrix(0.866025 0.5 -0.866025 0.5 98.7732 197.219)" fill="white"/>
<rect opacity="0.6" width="114.054" height="114.054" rx="10" transform="matrix(0.866025 0.5 -0.866025 0.5 98.7732 207.018)" fill="white"/>
<rect opacity="0.4" width="114.054" height="114.054" rx="10" transform="matrix(0.866025 0.5 -0.866025 0.5 98.7732 216.816)" fill="white"/>
<rect opacity="0.8" width="114.054" height="114.054" rx="10" transform="matrix(0.866025 0.5 -0.866025 0.5 498.065 197.219)" fill="white"/>
<rect opacity="0.6" width="114.054" height="114.054" rx="10" transform="matrix(0.866025 0.5 -0.866025 0.5 498.065 207.018)" fill="white"/>
<rect opacity="0.4" width="114.054" height="114.054" rx="10" transform="matrix(0.866025 0.5 -0.866025 0.5 498.065 216.816)" fill="white"/>
<rect opacity="0.4" x="-2.98023e-08" y="0.5" width="218.406" height="218.406" rx="19.5" transform="matrix(0.866025 0.5 -0.866025 0.5 303.128 316.622)" fill="url(#paint0_linear_71_3074)" stroke="url(#paint1_linear_71_3074)"/>
<rect opacity="0.6" x="-2.98023e-08" y="0.5" width="218.406" height="218.406" rx="19.5" transform="matrix(0.866025 0.5 -0.866025 0.5 303.128 296.102)" fill="url(#paint2_linear_71_3074)" stroke="url(#paint3_linear_71_3074)"/>
<rect opacity="0.8" x="-2.98023e-08" y="0.5" width="218.406" height="218.406" rx="19.5" transform="matrix(0.866025 0.5 -0.866025 0.5 303.128 267.69)" fill="url(#paint4_linear_71_3074)" stroke="url(#paint5_linear_71_3074)"/>
<rect x="-2.98023e-08" y="0.5" width="218.406" height="218.406" rx="19.5" transform="matrix(0.866025 0.5 -0.866025 0.5 303.724 244.013)" stroke="white"/>
<path d="M489.19 241.159L489.19 59.3409L499.277 65.1648L499.277 246.983L489.19 241.159ZM523.142 133.489C522.404 125.866 519.411 118.55 514.162 111.543C508.914 104.535 502.476 98.8295 494.849 94.4261C489.272 91.2064 484.393 89.4309 480.21 89.0994C476.069 88.7917 472.829 89.786 470.492 92.0824C468.196 94.4025 467.047 97.8826 467.047 102.523C467.047 106.405 467.847 110.205 469.446 113.922C471.086 117.615 473.178 121.119 475.72 124.433C478.262 127.7 480.928 130.731 483.716 133.524C486.504 136.27 489.067 138.673 491.404 140.733L504.198 152.097C507.478 154.985 511.128 158.465 515.146 162.537C519.206 166.633 523.081 171.261 526.771 176.422C530.503 181.559 533.578 187.17 535.997 193.254C538.417 199.339 539.626 205.79 539.626 212.608C539.626 220.468 537.843 226.54 534.275 230.825C530.749 235.134 525.582 237.194 518.775 237.004C512.009 236.839 503.788 233.962 494.111 228.375C485.09 223.167 477.278 216.976 470.676 209.803C464.116 202.653 458.949 194.982 455.176 186.791C451.445 178.624 449.333 170.42 448.841 162.182L464.587 171.273C464.997 177.002 466.596 182.471 469.385 187.679C472.214 192.864 475.781 197.575 480.087 201.813C484.434 206.027 489.108 209.578 494.111 212.466C499.933 215.828 505.162 217.757 509.795 218.254C514.429 218.704 518.099 217.745 520.805 215.378C523.511 212.963 524.864 209.104 524.864 203.801C524.864 198.972 523.696 194.367 521.359 189.987C519.021 185.607 515.946 181.37 512.132 177.274C508.319 173.179 504.198 169.142 499.769 165.165L484.27 151.102C474.428 142.153 466.637 132.991 460.897 123.616C455.156 114.241 452.286 104.653 452.286 94.8523C452.286 86.7083 454.192 80.7069 458.006 76.848C461.86 72.9654 467.027 71.2135 473.506 71.5923C480.025 71.9474 487.304 74.4451 495.341 79.0852C503.46 83.7727 510.677 89.6203 516.991 96.6278C523.306 103.588 528.309 111.022 531.999 118.929C535.731 126.86 537.699 134.554 537.904 142.011L523.142 133.489Z" fill="url(#paint6_linear_71_3074)"/>
<path d="M479.19 245.159L478.324 244.659L478.324 245.659L479.19 246.159L479.19 245.159ZM479.19 63.3409L479.19 62.3409L478.324 61.8409L478.324 62.8409L479.19 63.3409ZM489.277 69.1648L490.143 69.6648L490.143 68.6648L489.277 68.1648L489.277 69.1648ZM489.277 250.983L489.277 251.983L490.143 252.483L490.143 251.483L489.277 250.983ZM513.142 137.489L512.282 137.11L512.373 138.044L513.142 138.489L513.142 137.489ZM504.162 115.543L503.687 116.104L504.162 115.543ZM470.21 93.0994L469.867 91.9832L469.864 91.9829L470.21 93.0994ZM460.492 96.0824L459.796 95.0855L459.791 95.0898L460.492 96.0824ZM459.446 117.922L458.724 118.056L458.728 118.067L458.733 118.078L459.446 117.922ZM465.72 128.433L465.259 129.014L465.267 129.025L465.72 128.433ZM473.716 137.524L473.417 138.29L473.428 138.301L473.716 137.524ZM481.404 144.733L481.63 143.897L481.625 143.893L481.404 144.733ZM494.198 156.097L493.973 156.932L493.978 156.937L494.198 156.097ZM505.146 166.537L504.84 167.296L504.843 167.299L505.146 166.537ZM516.771 180.422L516.269 180.947L516.278 180.959L516.771 180.422ZM525.997 197.254L526.741 197.172L525.997 197.254ZM524.275 234.825L523.549 233.861L523.546 233.864L524.275 234.825ZM508.775 241.004L508.403 239.886L508.401 239.886L508.775 241.004ZM460.676 213.803L460.325 214.514L460.327 214.516L460.676 213.803ZM445.176 190.791L444.472 190.967L444.475 190.973L445.176 190.791ZM438.841 166.182L438.841 165.182L437.911 164.645L437.977 165.754L438.841 166.182ZM454.587 175.273L455.45 175.685L455.382 174.731L454.587 174.273L454.587 175.273ZM459.385 191.679L458.739 191.973L458.747 191.988L459.385 191.679ZM470.087 205.813L469.799 206.59L469.808 206.599L470.087 205.813ZM499.795 222.254L500.122 223.369L500.128 223.37L499.795 222.254ZM510.805 219.378L511.483 220.392L511.486 220.389L510.805 219.378ZM511.359 193.987L512.005 193.696L511.359 193.987ZM502.132 181.274L501.79 181.995L502.132 181.274ZM489.769 169.165L489.531 169.989L489.538 169.994L489.769 169.165ZM474.27 155.102L474.03 155.925L474.032 155.926L474.27 155.102ZM450.897 127.616L450.312 128.017L450.897 127.616ZM448.006 80.848L447.306 79.855L447.305 79.8557L448.006 80.848ZM463.506 75.5923L463.861 76.7094L463.863 76.7095L463.506 75.5923ZM506.991 100.628L506.629 101.327L506.633 101.331L506.991 100.628ZM521.999 122.929L521.302 123.12L521.305 123.126L521.999 122.929ZM527.904 146.011L527.904 147.011L528.798 147.528L528.77 146.479L527.904 146.011ZM480.056 245.659L480.056 63.8409L478.324 62.8409L478.324 244.659L480.056 245.659ZM479.19 64.3409L489.277 70.1648L489.277 68.1648L479.19 62.3409L479.19 64.3409ZM488.411 68.6648L488.411 250.483L490.143 251.483L490.143 69.6648L488.411 68.6648ZM489.277 249.983L479.19 244.159L479.19 246.159L489.277 251.983L489.277 249.983ZM514.002 137.868C513.234 129.934 510.1 122.274 504.637 114.981L503.687 116.104C508.722 122.826 511.574 129.797 512.282 137.11L514.002 137.868ZM504.637 114.981C499.22 107.748 492.608 101.906 484.849 97.4261L484.849 99.4261C492.344 103.753 498.607 109.322 503.687 116.104L504.637 114.981ZM484.849 97.4261C479.18 94.1532 474.179 92.3249 469.867 91.9832L470.553 94.2157C474.606 94.5368 479.364 96.2597 484.849 99.4261L484.849 97.4261ZM469.864 91.9829C465.605 91.6664 462.236 92.6878 459.796 95.0855L461.188 97.0792C463.422 94.8841 466.532 93.9169 470.556 94.2159L469.864 91.9829ZM459.791 95.0898C457.384 97.522 456.181 101.178 456.181 106.023L457.913 107.023C457.913 102.587 459.007 99.2829 461.192 97.0749L459.791 95.0898ZM456.181 106.023C456.181 110.069 457.017 114.089 458.724 118.056L460.169 117.788C458.677 114.321 457.913 110.741 457.913 107.023L456.181 106.023ZM458.733 118.078C460.443 121.927 462.621 125.575 465.259 129.013L466.181 127.853C463.734 124.663 461.73 121.303 460.159 117.766L458.733 118.078ZM465.267 129.025C467.858 132.354 470.575 135.443 473.417 138.29L474.015 136.758C471.28 134.018 468.666 131.047 466.173 127.842L465.267 129.025ZM473.428 138.301C476.234 141.064 478.819 143.489 481.184 145.573L481.625 143.893C479.315 141.857 476.775 139.476 474.004 136.748L473.428 138.301ZM481.179 145.569L493.973 156.932L494.423 155.261L481.63 143.897L481.179 145.569ZM493.978 156.937C497.223 159.794 500.843 163.245 504.84 167.296L505.452 165.778C501.413 161.685 497.734 158.176 494.418 155.256L493.978 156.937ZM504.843 167.299C508.829 171.32 512.637 175.868 516.269 180.947L517.273 179.897C513.524 174.654 509.583 169.945 505.449 165.775L504.843 167.299ZM516.278 180.959C519.904 185.951 522.895 191.405 525.253 197.337L526.741 197.172C524.261 190.935 521.102 185.168 517.264 179.884L516.278 180.959ZM525.253 197.337C527.575 203.176 528.76 209.425 528.76 216.108L530.492 217.108C530.492 210.154 529.258 203.502 526.741 197.172L525.253 197.337ZM528.76 216.108C528.76 223.782 527.021 229.69 523.549 233.861L525.001 235.789C528.664 231.39 530.492 225.153 530.492 217.108L528.76 216.108ZM523.546 233.864C520.12 238.051 515.087 240.072 508.403 239.886L509.147 242.122C516.077 242.315 521.377 240.217 525.004 235.786L523.546 233.864ZM508.401 239.886C501.781 239.724 493.695 236.908 484.111 231.375L484.111 233.375C493.881 239.016 502.238 241.953 509.149 242.122L508.401 239.886ZM484.111 231.375C475.181 226.219 467.494 220.117 461.026 213.089L460.327 214.516C467.063 221.835 474.998 228.114 484.111 233.375L484.111 231.375ZM461.028 213.091C454.59 206.076 449.551 198.584 445.878 190.609L444.475 190.973C448.347 199.381 453.641 207.23 460.325 214.514L461.028 213.091ZM445.88 190.615C442.249 182.667 440.187 174.673 439.705 166.609L437.977 165.754C438.48 174.168 440.641 182.58 444.473 190.967L445.88 190.615ZM438.841 167.182L454.587 176.273L454.587 174.273L438.841 165.182L438.841 167.182ZM453.724 174.86C454.148 180.781 455.809 186.499 458.739 191.973L460.03 191.385C457.384 186.442 455.846 181.222 455.45 175.685L453.724 174.86ZM458.747 191.988C461.681 197.364 465.373 202.233 469.799 206.589L470.375 205.036C466.19 200.917 462.747 196.363 460.022 191.37L458.747 191.988ZM469.808 206.599C474.252 210.907 479.022 214.528 484.111 217.466L484.111 215.466C479.194 212.627 474.615 209.146 470.365 205.026L469.808 206.599ZM484.111 217.466C490.027 220.882 495.369 222.859 500.122 223.369L499.469 221.14C494.954 220.655 489.84 218.773 484.111 215.466L484.111 217.466ZM500.128 223.37C504.876 223.831 508.672 222.85 511.483 220.392L510.127 218.364C507.525 220.64 503.982 221.578 499.463 221.139L500.128 223.37ZM511.486 220.389C514.318 217.862 515.73 213.817 515.73 208.301L513.998 207.301C513.998 212.392 512.704 216.064 510.124 218.367L511.486 220.389ZM515.73 208.301C515.73 203.276 514.51 198.389 512.005 193.696L510.712 194.279C512.882 198.345 513.998 202.668 513.998 207.301L515.73 208.301ZM512.005 193.696C509.57 189.132 506.384 184.751 502.475 180.553L501.79 181.995C505.508 185.988 508.473 190.083 510.712 194.279L512.005 193.696ZM502.475 180.553C498.622 176.415 494.463 172.343 490.001 168.335L489.538 169.994C493.932 173.941 498.016 177.942 501.79 181.995L502.475 180.553ZM490.007 168.341L474.507 154.278L474.032 155.926L489.531 169.989L490.007 168.341ZM474.509 154.279C464.757 145.412 457.097 136.387 451.481 127.216L450.312 128.017C456.178 137.596 464.1 146.895 474.03 155.925L474.509 154.279ZM451.481 127.216C445.937 118.162 443.152 108.901 443.152 99.3523L441.42 98.3523C441.42 108.406 444.375 118.32 450.312 128.017L451.481 127.216ZM443.152 99.3523C443.152 91.4001 445.01 85.5808 448.706 81.8403L447.305 79.8557C443.375 83.833 441.42 90.0165 441.42 98.3523L443.152 99.3523ZM448.706 81.841C452.464 78.0553 457.507 76.3379 463.861 76.7094L463.151 74.4752C456.547 74.0891 451.257 75.8756 447.306 79.855L448.706 81.841ZM463.863 76.7095C470.257 77.0578 477.412 79.5074 485.341 84.0852L485.341 82.0852C477.196 77.3827 469.794 74.8371 463.148 74.4751L463.863 76.7095ZM485.341 84.0852C493.355 88.7125 500.445 94.4646 506.629 101.327L507.354 99.929C500.908 92.7759 493.564 86.833 485.341 82.0852L485.341 84.0852ZM506.633 101.331C512.829 108.161 517.709 115.422 521.302 123.12L522.696 122.738C518.908 114.622 513.783 107.015 507.35 99.9244L506.633 101.331ZM521.305 123.126C524.929 130.827 526.839 138.29 527.038 145.544L528.77 146.479C528.559 138.818 526.533 130.892 522.693 122.732L521.305 123.126ZM527.904 145.011L513.142 136.489L513.142 138.489L527.904 147.011L527.904 145.011Z" fill="#00FFD4"/>
<rect width="19.5971" height="19.5971" transform="matrix(0.866025 0.5 -0.866025 0.5 119.856 37.9927)" fill="url(#paint7_linear_71_3074)"/>
<rect width="19.5971" height="195.971" transform="matrix(0.866025 0.5 -2.20305e-08 1 102.885 47.7913)" fill="url(#paint8_linear_71_3074)"/>
<rect width="19.5971" height="195.971" transform="matrix(0.866025 -0.5 2.20305e-08 1 120.032 57.5897)" fill="url(#paint9_linear_71_3074)"/>
<rect width="19.5971" height="19.5971" transform="matrix(0.866025 0.5 -0.866025 0.5 95.3604 89.4352)" fill="url(#paint10_linear_71_3074)"/>
<rect width="19.5971" height="159.227" transform="matrix(0.866025 0.5 -2.20305e-08 1 78.3887 99.2338)" fill="url(#paint11_linear_71_3074)"/>
<rect width="19.5971" height="159.227" transform="matrix(0.866025 -0.5 2.20305e-08 1 95.5361 109.032)" fill="url(#paint12_linear_71_3074)"/>
<rect width="19.5971" height="19.5971" transform="matrix(0.866025 0.5 -0.866025 0.5 70.8638 140.878)" fill="url(#paint13_linear_71_3074)"/>
<rect width="19.5971" height="122.482" transform="matrix(0.866025 0.5 -2.20305e-08 1 53.8921 150.676)" fill="url(#paint14_linear_71_3074)"/>
<rect width="19.5971" height="122.482" transform="matrix(0.866025 -0.5 2.20305e-08 1 71.0396 160.475)" fill="url(#paint15_linear_71_3074)"/>
<path opacity="0.5" d="M190 108H416L350.032 387H262.076L190 108Z" fill="url(#paint16_linear_71_3074)"/>
<circle r="39.0215" transform="matrix(0.866025 0.5 -0.866025 0.5 303.724 372.734)" fill="url(#paint17_linear_71_3074)"/>
<circle r="39.0215" transform="matrix(0.866025 0.5 -0.866025 0.5 304.26 365.04)" fill="#00FFD4"/>
<path d="M286.83 367.252C285.747 366.627 284.988 365.94 284.551 365.191C284.114 364.441 284.01 363.699 284.237 362.964C284.465 362.229 285.034 361.57 285.944 360.988L288.158 362.266C287.39 362.809 287.07 363.442 287.199 364.162C287.34 364.883 287.894 365.523 288.86 366.08C289.635 366.528 290.505 366.82 291.471 366.959C292.442 367.101 293.417 367.089 294.395 366.922C295.386 366.755 296.284 366.439 297.089 365.974C297.914 365.498 298.467 364.969 298.75 364.386C299.045 363.804 299.067 363.223 298.815 362.644C298.562 362.066 298.037 361.542 297.237 361.073C296.665 360.736 295.982 360.444 295.189 360.199C294.401 359.951 293.67 359.795 292.993 359.731L291.111 358.346L301.555 353.637L311.371 359.305L309.342 360.476L301.444 355.917L295.207 358.751L295.318 358.814C296.013 358.861 296.754 358.994 297.541 359.214C298.329 359.434 299.039 359.727 299.673 360.093C300.829 360.76 301.582 361.515 301.933 362.357C302.296 363.198 302.259 364.044 301.822 364.892C301.392 365.744 300.564 366.524 299.34 367.231C298.135 367.927 296.788 368.392 295.299 368.626C293.823 368.861 292.341 368.864 290.852 368.637C289.37 368.406 288.029 367.944 286.83 367.252ZM302.895 376.527C301.505 375.725 300.699 374.823 300.478 373.821C300.262 372.816 300.619 371.747 301.548 370.614C302.483 369.478 303.977 368.317 306.032 367.131C308.074 365.952 310.076 365.094 312.038 364.558C314.012 364.022 315.87 363.816 317.611 363.94C319.363 364.064 320.929 364.524 322.307 365.32C323.684 366.115 324.478 367.017 324.687 368.026C324.908 369.034 324.552 370.107 323.617 371.243C322.694 372.379 321.212 373.537 319.17 374.716C317.115 375.902 315.104 376.765 313.136 377.305C311.174 377.841 309.322 378.047 307.582 377.923C305.847 377.795 304.285 377.33 302.895 376.527ZM304.925 375.355C306.302 376.151 308.037 376.385 310.128 376.058C312.219 375.732 314.495 374.858 316.955 373.438C318.592 372.493 319.809 371.587 320.609 370.721C321.415 369.858 321.793 369.064 321.744 368.34C321.701 367.619 321.224 366.996 320.314 366.47C318.948 365.682 317.208 365.455 315.092 365.788C312.982 366.119 310.7 366.992 308.246 368.409C306.61 369.354 305.392 370.256 304.592 371.115C303.793 371.975 303.418 372.763 303.467 373.48C303.522 374.201 304.008 374.826 304.925 375.355Z" fill="#5E60CE"/>
<defs>
<linearGradient id="paint0_linear_71_3074" x1="-40.1592" y1="-35.6536" x2="294.559" y2="7.04007" gradientUnits="userSpaceOnUse">
<stop stop-color="#6930C3"/>
<stop offset="1" stop-color="#00FFD4"/>
</linearGradient>
<linearGradient id="paint1_linear_71_3074" x1="-40.1592" y1="-35.6536" x2="294.559" y2="7.04007" gradientUnits="userSpaceOnUse">
<stop stop-color="#6930C3"/>
<stop offset="1" stop-color="#00FFD4"/>
</linearGradient>
<linearGradient id="paint2_linear_71_3074" x1="-40.1592" y1="-35.6536" x2="294.559" y2="7.04007" gradientUnits="userSpaceOnUse">
<stop stop-color="#6930C3"/>
<stop offset="1" stop-color="#00FFD4"/>
</linearGradient>
<linearGradient id="paint3_linear_71_3074" x1="-40.1592" y1="-35.6536" x2="294.559" y2="7.04007" gradientUnits="userSpaceOnUse">
<stop stop-color="#6930C3"/>
<stop offset="1" stop-color="#00FFD4"/>
</linearGradient>
<linearGradient id="paint4_linear_71_3074" x1="-40.1592" y1="-35.6536" x2="294.559" y2="7.04007" gradientUnits="userSpaceOnUse">
<stop stop-color="#6930C3"/>
<stop offset="1" stop-color="#00FFD4"/>
</linearGradient>
<linearGradient id="paint5_linear_71_3074" x1="-40.1592" y1="-35.6536" x2="294.559" y2="7.04007" gradientUnits="userSpaceOnUse">
<stop stop-color="#6930C3"/>
<stop offset="1" stop-color="#00FFD4"/>
</linearGradient>
<linearGradient id="paint6_linear_71_3074" x1="411.753" y1="-64.0664" x2="650.331" y2="-48.2538" gradientUnits="userSpaceOnUse">
<stop stop-color="#6930C3"/>
<stop offset="1" stop-color="#00FFD4"/>
</linearGradient>
<linearGradient id="paint7_linear_71_3074" x1="-3.58697" y1="-3.18454" x2="26.3097" y2="0.62881" gradientUnits="userSpaceOnUse">
<stop stop-color="#6930C3"/>
<stop offset="1" stop-color="#00FFD4"/>
</linearGradient>
<linearGradient id="paint8_linear_71_3074" x1="-3.58697" y1="-31.8454" x2="26.7911" y2="-31.4579" gradientUnits="userSpaceOnUse">
<stop stop-color="#6930C3"/>
<stop offset="1" stop-color="#00FFD4"/>
</linearGradient>
<linearGradient id="paint9_linear_71_3074" x1="-73.5436" y1="15.6342" x2="46.5159" y2="-15.9276" gradientUnits="userSpaceOnUse">
<stop stop-color="#00FFD4"/>
<stop offset="1" stop-color="#6930C3"/>
</linearGradient>
<linearGradient id="paint10_linear_71_3074" x1="-3.58697" y1="-3.18454" x2="26.3097" y2="0.62881" gradientUnits="userSpaceOnUse">
<stop stop-color="#6930C3"/>
<stop offset="1" stop-color="#00FFD4"/>
</linearGradient>
<linearGradient id="paint11_linear_71_3074" x1="-3.58697" y1="-25.8744" x2="26.7886" y2="-25.3975" gradientUnits="userSpaceOnUse">
<stop stop-color="#6930C3"/>
<stop offset="1" stop-color="#00FFD4"/>
</linearGradient>
<linearGradient id="paint12_linear_71_3074" x1="-73.5436" y1="12.7028" x2="42.6494" y2="-24.8914" gradientUnits="userSpaceOnUse">
<stop stop-color="#00FFD4"/>
<stop offset="1" stop-color="#6930C3"/>
</linearGradient>
<linearGradient id="paint13_linear_71_3074" x1="-3.58697" y1="-3.18454" x2="26.3097" y2="0.62881" gradientUnits="userSpaceOnUse">
<stop stop-color="#6930C3"/>
<stop offset="1" stop-color="#00FFD4"/>
</linearGradient>
<linearGradient id="paint14_linear_71_3074" x1="-3.58697" y1="-19.9034" x2="26.7834" y2="-19.2836" gradientUnits="userSpaceOnUse">
<stop stop-color="#6930C3"/>
<stop offset="1" stop-color="#00FFD4"/>
</linearGradient>
<linearGradient id="paint15_linear_71_3074" x1="-73.5436" y1="9.77136" x2="35.5182" y2="-36.1016" gradientUnits="userSpaceOnUse">
<stop stop-color="#00FFD4"/>
<stop offset="1" stop-color="#6930C3"/>
</linearGradient>
<linearGradient id="paint16_linear_71_3074" x1="302.389" y1="664.708" x2="302.389" y2="155.792" gradientUnits="userSpaceOnUse">
<stop offset="0.480551" stop-color="#5E60CE"/>
<stop offset="0.641723" stop-color="#3F95D0" stop-opacity="0.867681"/>
<stop offset="1" stop-color="#00FFD4" stop-opacity="0"/>
</linearGradient>
<linearGradient id="paint17_linear_71_3074" x1="-14.2847" y1="-12.682" x2="104.775" y2="2.50416" gradientUnits="userSpaceOnUse">
<stop stop-color="#6930C3"/>
<stop offset="1" stop-color="#00FFD4"/>
</linearGradient>
</defs>
</svg>
