<svg width="582" height="183" viewBox="0 0 582 183" fill="none" xmlns="http://www.w3.org/2000/svg">
<path d="M85.8858 120.71V143.493H19.4373V120.71H85.8858ZM29.4724 11.8613V143.493H0V11.8613H29.4724Z" fill="#271F7F"/>
<path d="M94.836 95.5773V93.6788C94.836 86.5066 95.8606 79.9069 97.9098 73.8798C99.959 67.7925 102.973 62.5188 106.95 58.0588C110.928 53.5987 115.81 50.1332 121.596 47.6621C127.382 45.1307 134.012 43.865 141.486 43.865C149.08 43.865 155.77 45.1307 161.556 47.6621C167.402 50.1332 172.314 53.5987 176.292 58.0588C180.27 62.5188 183.283 67.7925 185.332 73.8798C187.382 79.9069 188.406 86.5066 188.406 93.6788V95.5773C188.406 102.689 187.382 109.289 185.332 115.376C183.283 121.403 180.27 126.677 176.292 131.197C172.314 135.657 167.432 139.123 161.646 141.594C155.86 144.065 149.2 145.301 141.666 145.301C134.193 145.301 127.533 144.065 121.687 141.594C115.84 139.123 110.928 135.657 106.95 131.197C102.973 126.677 99.959 121.403 97.9098 115.376C95.8606 109.289 94.836 102.689 94.836 95.5773ZM123.133 93.6788V95.5773C123.133 99.4346 123.434 103.051 124.037 106.426C124.7 109.801 125.755 112.754 127.201 115.286C128.648 117.817 130.546 119.806 132.897 121.253C135.308 122.639 138.231 123.332 141.666 123.332C145.102 123.332 147.995 122.639 150.345 121.253C152.696 119.806 154.594 117.817 156.041 115.286C157.487 112.754 158.512 109.801 159.115 106.426C159.778 103.051 160.109 99.4346 160.109 95.5773V93.6788C160.109 89.8817 159.778 86.3258 159.115 83.0109C158.512 79.6357 157.487 76.6523 156.041 74.0607C154.594 71.469 152.666 69.45 150.255 68.0035C147.904 66.557 144.981 65.8337 141.486 65.8337C138.11 65.8337 135.247 66.557 132.897 68.0035C130.546 69.45 128.648 71.469 127.201 74.0607C125.755 76.6523 124.7 79.6357 124.037 83.0109C123.434 86.3258 123.133 89.8817 123.133 93.6788Z" fill="#271F7F"/>
<path d="M369.218 66.557V143.493H340.921V45.6731H367.501L369.218 66.557ZM365.512 91.1474L358.46 91.3282C358.46 83.9752 359.364 77.3755 361.172 71.5293C362.98 65.683 365.542 60.7107 368.857 56.6123C372.232 52.4536 376.24 49.2894 380.881 47.1196C385.582 44.9499 390.765 43.865 396.431 43.865C401.011 43.865 405.2 44.528 408.997 45.854C412.794 47.1799 416.049 49.3195 418.761 52.2728C421.533 55.1658 423.643 59.0231 425.089 63.8448C426.536 68.6062 427.259 74.4826 427.259 81.474V143.493H398.872V81.3835C398.872 77.2851 398.299 74.1209 397.154 71.8909C396.009 69.6609 394.321 68.0939 392.091 67.1898C389.921 66.2857 387.27 65.8337 384.135 65.8337C380.821 65.8337 377.988 66.4967 375.637 67.8226C373.287 69.0883 371.358 70.8663 369.851 73.1566C368.345 75.4469 367.229 78.1289 366.506 81.2027C365.843 84.2765 365.512 87.5914 365.512 91.1474Z" fill="#271F7F"/>
<path d="M475.446 4.62878V143.493H447.148V4.62878H475.446Z" fill="#271F7F"/>
<path d="M525.259 132.192L550.844 45.6731H581.221L541.894 158.138C541.05 160.609 539.905 163.261 538.459 166.094C537.072 168.927 535.174 171.639 532.763 174.231C530.412 176.822 527.399 178.932 523.722 180.559C520.046 182.186 515.526 183 510.162 183C507.449 183 505.34 182.849 503.833 182.548C502.387 182.307 500.458 181.885 498.047 181.282L497.957 160.76C498.74 160.76 499.433 160.76 500.036 160.76C500.699 160.82 501.362 160.851 502.025 160.851C505.4 160.851 508.112 160.489 510.162 159.766C512.271 159.042 513.898 157.958 515.043 156.511C516.249 155.125 517.213 153.347 517.936 151.177L525.259 132.192ZM516.671 45.6731L536.922 115.286L540.357 145.21L521.281 146.205L486.294 45.6731H516.671Z" fill="#271F7F"/>
<path fill-rule="evenodd" clip-rule="evenodd" d="M253.709 2.25957C256.722 -0.75319 261.606 -0.75319 264.619 2.25957L312.45 50.0904C313.897 51.5372 314.71 53.4994 314.71 55.5455V137.321C314.71 141.581 311.256 145.035 306.995 145.035C302.734 145.035 299.28 141.581 299.28 137.321V58.741L259.164 18.6248L216.788 61.0006L205.878 50.0904L253.709 2.25957Z" fill="#271F7F"/>
<path fill-rule="evenodd" clip-rule="evenodd" d="M264.619 2.25957C261.606 -0.75319 256.722 -0.75319 253.709 2.25957L205.878 50.0904C204.431 51.5372 203.619 53.4994 203.619 55.5455V137.321C203.619 141.581 207.073 145.035 211.333 145.035C215.594 145.035 219.048 141.581 219.048 137.321V58.741L259.164 18.6248L301.54 61.0006L312.45 50.0904L264.619 2.25957Z" fill="#271F7F"/>
<path d="M285.394 16.9721C285.394 13.5636 288.157 10.8004 291.566 10.8004C294.974 10.8004 297.737 13.5636 297.737 16.9721V35.4873C297.737 38.8958 294.974 41.659 291.566 41.659C288.157 41.659 285.394 38.8958 285.394 35.4873V16.9721Z" fill="#271F7F"/>
<path d="M236.02 109.548C236.02 104.435 240.165 100.29 245.278 100.29H251.449C256.562 100.29 260.707 104.435 260.707 109.548V131.149C260.707 136.262 256.562 140.406 251.449 140.406H245.278C240.165 140.406 236.02 136.262 236.02 131.149V109.548Z" fill="#271F7F"/>
</svg>
